<?xml version="1.0" encoding="UTF-8" standalone="no"?>
<svg
   xmlns:dc="http://purl.org/dc/elements/1.1/"
   xmlns:cc="http://creativecommons.org/ns#"
   xmlns:rdf="http://www.w3.org/1999/02/22-rdf-syntax-ns#"
   xmlns:svg="http://www.w3.org/2000/svg"
   xmlns="http://www.w3.org/2000/svg"
   xmlns:sodipodi="http://sodipodi.sourceforge.net/DTD/sodipodi-0.dtd"
   xmlns:inkscape="http://www.inkscape.org/namespaces/inkscape"
   version="1.1"
   x="0px"
   y="0px"
   viewBox="0 0 26 26"
   xml:space="preserve"
   id="svg4640"
   sodipodi:docname="arkhn_logo_only_white.svg"
   width="26"
   height="26"
   inkscape:version="0.92.4 (33fec40, 2019-01-16)"><metadata
   id="metadata4646"><rdf:RDF><cc:Work
       rdf:about=""><dc:format>image/svg+xml</dc:format><dc:type
         rdf:resource="http://purl.org/dc/dcmitype/StillImage" /><dc:title></dc:title></cc:Work></rdf:RDF></metadata><defs
   id="defs4644" /><sodipodi:namedview
   pagecolor="#ffffff"
   bordercolor="#666666"
   borderopacity="1"
   objecttolerance="10"
   gridtolerance="10"
   guidetolerance="10"
   inkscape:pageopacity="0"
   inkscape:pageshadow="2"
   inkscape:window-width="640"
   inkscape:window-height="480"
   id="namedview4642"
   showgrid="false"
   inkscape:zoom="2.625"
   inkscape:cx="76"
   inkscape:cy="13"
   inkscape:window-x="0"
   inkscape:window-y="27"
   inkscape:window-maximized="0"
   inkscape:current-layer="svg4640" />
<g
   id="Layer_2"
   style="display:none">
	<g
   style="display:inline"
   id="g4537">
		<rect
   x="-692"
   y="-371.008"
   style="fill:#3a4b59"
   width="1536"
   height="768"
   id="rect4531" />
		<rect
   x="-692"
   y="-371.008"
   style="fill:#3a4b59"
   width="1536"
   height="768"
   id="rect4533" />
		<rect
   x="-692"
   y="-371.008"
   style="fill:#202b33"
   width="1536"
   height="768"
   id="rect4535" />
	</g>
</g>
<g
   id="Layer_1"
   style="display:none">
	<path
   style="display:inline;fill:#182026"
   d="M 10,0 0,19.951 10,26 20,19.951 Z m 1.431,9.222 4.847,9.671 -4.847,2.932 z m -2.862,0 V 21.825 L 3.722,18.893 Z"
   id="path4540"
   inkscape:connector-curvature="0" />
	<path
   style="display:inline;fill:#182026"
   d="m 33.296,17.401 -2.85,8.591 H 26 l 9.424,-26 h 5.396 l 9.158,26 h -4.522 l -2.85,-8.591 z M 41.504,14.123 38.046,3.422 34.398,14.123 Z"
   id="path4542"
   inkscape:connector-curvature="0" />
	<path
   style="display:inline;fill:#182026"
   d="m 73.536,25.992 h -4.598 c -0.684,-1.696 -1.027,-3.316 -1.33,-6.179 -0.342,-2.751 -1.368,-4.484 -3.761,-4.634 -0.646,-0.038 -1.292,-0.038 -1.938,-0.038 h -4.066 v 10.852 h -4.18 v -26 h 9.044 c 1.405,0 2.356,0 3.609,0.152 3.8,0.489 6.65,2.487 6.65,6.932 0,3.391 -2.09,5.388 -4.864,6.218 2.356,1.017 3.344,3.278 3.61,5.991 0.304,3.278 0.76,5.274 1.824,6.706 z M 62.212,11.937 c 1.064,0 1.71,0 2.356,-0.075 2.28,-0.226 3.989,-1.507 3.989,-4.258 0,-2.751 -1.405,-3.881 -3.648,-4.183 C 64.226,3.308 63.541,3.27 62.478,3.27 h -4.636 v 8.666 h 4.37 z"
   id="path4544"
   inkscape:connector-curvature="0" />
	<path
   style="display:inline;fill:#182026"
   d="M 98.501,25.992 H 92.915 L 84.288,15.14 81.97,17.627 v 8.365 h -4.18 v -26 h 4.181 V 13.218 L 94.168,-0.008 h 4.941 l -11.78,12.586 z"
   id="path4546"
   inkscape:connector-curvature="0" />
	<path
   style="display:inline;fill:#182026"
   d="m 123.997,25.992 h -4.142 V 14.914 h -13.452 v 11.078 h -4.181 v -26 h 4.181 v 11.569 h 13.452 V -0.008 h 4.142 z"
   id="path4548"
   inkscape:connector-curvature="0" />
	<path
   style="display:inline;fill:#182026"
   d="M 145.996,25.992 134.369,4.552 c 0.113,2.977 0.152,6.33 0.152,9.006 v 12.434 h -4.18 v -26 h 5.891 l 11.742,21.592 c -0.076,-2.94 -0.114,-6.405 -0.114,-9.081 V -0.008 h 4.105 l 0.037,26 z"
   id="path4550"
   inkscape:connector-curvature="0" />
	<text
   transform="translate(-22.9512,58)"
   style="font-size:19px;font-family:Aileron-Thin"
   id="text4552">Data integration for health</text>

</g>
<g
   id="logo_white"
   transform="translate(-63)">
	<rect
   x="51"
   y="-12"
   style="display:none"
   width="50"
   height="50"
   id="rect4555" />
	<path
   style="fill:#ffffff"
   d="M 76,0 66,19.951 76,26 86,19.951 Z m 1.431,9.222 4.847,9.671 -4.847,2.932 z m -2.862,0 v 12.603 l -4.847,-2.932 z"
   id="path4557"
   inkscape:connector-curvature="0" />
</g>
<g
   id="logo_copy"
   style="display:none">
	<rect
   x="51"
   y="-12"
   width="50"
   height="50"
   id="rect4560" />
	<path
   style="display:inline"
   d="M 76,0 66,19.951 76,26 86,19.951 Z m 1.431,9.222 4.847,9.671 -4.847,2.932 z m -2.862,0 v 12.603 l -4.847,-2.932 z"
   id="path4562"
   inkscape:connector-curvature="0" />
</g>
<g
   id="Layer_1_copy"
   style="display:none">
	<g
   style="display:inline"
   id="g4567">
		<path
   style="fill:#efefef"
   d="m -57.473,-31.574 -19.99,39.881 19.99,12.092 19.99,-12.092 z m 2.86,18.434 9.69,19.332 -9.69,5.861 z m -5.72,0 v 25.193 l -9.69,-5.861 z"
   id="path4565"
   inkscape:connector-curvature="0" />
	</g>
	<g
   style="display:inline"
   id="g4571">
		<path
   style="fill:#efefef"
   d="m -10.905,3.21 -5.696,17.173 h -8.888 L -6.651,-31.59 H 4.136 l 18.306,51.973 h -9.04 L 7.706,3.21 Z M 5.503,-3.342 -1.41,-24.734 -8.702,-3.342 Z"
   id="path4569"
   inkscape:connector-curvature="0" />
	</g>
	<g
   style="display:inline"
   id="g4575">
		<path
   style="fill:#efefef"
   d="M 69.533,20.383 H 60.342 C 58.974,16.993 58.29,13.754 57.683,8.03 56.999,2.531 54.949,-0.933 50.164,-1.234 48.873,-1.31 47.581,-1.31 46.29,-1.31 H 38.162 V 20.383 H 29.806 V -31.59 h 18.079 c 2.809,0 4.71,0 7.215,0.303 7.596,0.977 13.293,4.971 13.293,13.858 0,6.779 -4.177,10.771 -9.723,12.429 4.71,2.033 6.685,6.553 7.217,11.975 0.608,6.555 1.519,10.547 3.646,13.408 z M 46.898,-7.711 c 2.127,0 3.418,0 4.71,-0.151 4.558,-0.452 7.974,-3.012 7.974,-8.511 0,-5.499 -2.809,-7.759 -7.292,-8.361 -1.366,-0.227 -2.734,-0.301 -4.86,-0.301 h -9.266 v 17.324 z"
   id="path4573"
   inkscape:connector-curvature="0" />
	</g>
	<g
   style="display:inline"
   id="g4579">
		<path
   style="fill:#efefef"
   d="M 119.437,20.383 H 108.271 L 91.027,-1.309 86.394,3.662 V 20.384 H 78.037 V -31.59 h 8.357 v 26.439 l 24.382,-26.439 h 9.877 L 97.105,-6.431 Z"
   id="path4577"
   inkscape:connector-curvature="0" />
	</g>
	<g
   style="display:inline"
   id="g4583">
		<path
   style="fill:#efefef"
   d="m 170.403,20.383 h -8.28 V -1.761 h -26.89 v 22.144 h -8.357 V -31.59 h 8.357 v 23.126 h 26.89 V -31.59 h 8.28 z"
   id="path4581"
   inkscape:connector-curvature="0" />
	</g>
	<g
   style="display:inline"
   id="g4587">
		<path
   style="fill:#efefef"
   d="m 214.379,20.383 -23.243,-42.858 c 0.227,5.951 0.304,12.654 0.304,18.002 v 24.856 h -8.357 V -31.59 h 11.775 l 23.471,43.161 C 218.177,5.695 218.1,-1.233 218.1,-6.582 V -31.59 h 8.205 l 0.075,51.973 z"
   id="path4585"
   inkscape:connector-curvature="0" />
	</g>
	<g
   style="display:inline"
   id="g4637">
		<path
   style="fill:#efefef"
   d="m -96.744,62.645 c 0,8.847 -5.848,12.607 -9.987,13.101 -1.329,0.152 -2.089,0.152 -3.342,0.152 h -7.633 V 49.695 h 7.671 c 1.253,0 1.86,0 2.924,0.076 4.519,0.417 10.367,3.949 10.367,12.874 z m -1.595,0 c 0,-7.633 -4.67,-11.127 -8.886,-11.582 -0.836,-0.115 -1.481,-0.115 -2.848,-0.115 h -6.19 v 23.697 h 6.114 c 1.253,0 2.089,-0.037 3.228,-0.189 4.215,-0.534 8.582,-4.368 8.582,-11.811 z"
   id="path4589"
   inkscape:connector-curvature="0" />
		<path
   style="fill:#efefef"
   d="m -80.336,71.531 -0.95,2.013 c -1.366,1.937 -3.569,2.885 -6.076,2.885 -3.759,0 -6.265,-1.86 -6.265,-5.468 0,-4.632 5.317,-6.721 11.962,-6.721 h 1.291 v -0.912 c 0,-0.912 0,-1.708 -0.076,-2.544 -0.227,-2.698 -1.975,-4.217 -5.126,-4.217 -2.772,0 -5.355,1.482 -5.772,4.976 h -1.481 c 0.265,-3.57 3.19,-6.19 7.253,-6.19 4.139,0 6.266,1.936 6.57,5.279 0.076,0.988 0.076,1.632 0.076,2.62 v 6.532 c 0,2.089 0.113,3.57 0.342,6.114 h -1.482 z m -0.038,-3.494 v -2.583 c -5.772,-0.379 -11.658,1.14 -11.658,5.431 0,2.696 1.671,4.33 5.013,4.33 3.987,0 6.645,-3.305 6.645,-7.178 z"
   id="path4591"
   inkscape:connector-curvature="0" />
		<path
   style="fill:#efefef"
   d="m -67.383,74.91 v 1.14 c -0.607,0.076 -1.405,0.113 -2.127,0.113 -1.975,0 -2.999,-0.873 -3.152,-2.809 -0.076,-0.836 -0.076,-1.519 -0.076,-2.659 V 57.177 h -2.467 v -1.14 h 2.467 v -4.254 h 1.444 v 4.254 h 3.873 v 1.14 h -3.873 v 13.595 c 0,0.988 0,1.48 0.038,2.013 0.151,1.973 1.024,2.543 3.873,2.125 z"
   id="path4593"
   inkscape:connector-curvature="0" />
		<path
   style="fill:#efefef"
   d="m -51.547,71.531 -0.95,2.013 c -1.366,1.937 -3.569,2.885 -6.076,2.885 -3.759,0 -6.265,-1.86 -6.265,-5.468 0,-4.632 5.317,-6.721 11.962,-6.721 h 1.291 v -0.912 c 0,-0.912 0,-1.708 -0.076,-2.544 -0.227,-2.698 -1.975,-4.217 -5.126,-4.217 -2.772,0 -5.355,1.482 -5.772,4.976 h -1.481 c 0.265,-3.57 3.19,-6.19 7.253,-6.19 4.139,0 6.266,1.936 6.57,5.279 0.076,0.988 0.076,1.632 0.076,2.62 v 6.532 c 0,2.089 0.113,3.57 0.342,6.114 h -1.482 z m -0.038,-3.494 v -2.583 c -5.772,-0.379 -11.658,1.14 -11.658,5.431 0,2.696 1.671,4.33 5.013,4.33 3.987,0 6.645,-3.305 6.645,-7.178 z"
   id="path4595"
   inkscape:connector-curvature="0" />
		<path
   style="fill:#efefef"
   d="m -35.556,51.707 c 0,0.609 -0.494,1.101 -1.102,1.101 -0.607,0 -1.101,-0.492 -1.101,-1.101 0,-0.607 0.494,-1.101 1.101,-1.101 0.608,0 1.102,0.494 1.102,1.101 z m -1.823,24.191 V 55.885 h 1.444 v 20.013 z"
   id="path4597"
   inkscape:connector-curvature="0" />
		<path
   style="fill:#efefef"
   d="m -14.973,64.734 v 11.164 h -1.443 V 65.075 c 0,-1.329 -0.038,-2.202 -0.152,-3.229 -0.342,-3.114 -2.051,-5.239 -5.658,-5.239 -3.531,0 -6.759,2.467 -6.759,8.203 v 11.088 h -1.444 V 55.885 h 1.444 v 4.291 l 0.911,-2.089 c 1.52,-1.897 3.646,-2.733 6.001,-2.733 4.138,0 6.569,2.278 6.949,6.075 0.113,1.027 0.151,1.671 0.151,3.305 z"
   id="path4599"
   inkscape:connector-curvature="0" />
		<path
   style="fill:#efefef"
   d="m -3.617,74.91 v 1.14 c -0.607,0.076 -1.405,0.113 -2.126,0.113 -1.976,0 -3,-0.873 -3.153,-2.809 -0.076,-0.836 -0.076,-1.519 -0.076,-2.659 V 57.177 h -2.467 v -1.14 h 2.467 v -4.254 h 1.444 v 4.254 h 3.873 v 1.14 h -3.873 v 13.595 c 0,0.988 0,1.48 0.038,2.013 0.152,1.973 1.025,2.543 3.873,2.125 z"
   id="path4601"
   inkscape:connector-curvature="0" />
		<path
   style="fill:#efefef"
   d="m 15.752,66.289 h -15.95 c 0.228,6.495 3.798,8.925 7.291,8.925 3.038,0 5.925,-1.747 6.911,-5.544 h 1.482 c -1.102,4.519 -4.595,6.758 -8.468,6.758 -4.786,0 -8.735,-3.568 -8.735,-10.594 0,-6.342 3.987,-10.481 9.076,-10.481 5.658,0 8.43,4.785 8.43,9.987 10e-4,0.19 10e-4,0.456 -0.037,0.949 z M -0.197,65.036 H 14.31 c -0.228,-6.188 -3.646,-8.468 -7.026,-8.468 -3.493,0 -7.253,2.735 -7.481,8.468 z"
   id="path4603"
   inkscape:connector-curvature="0" />
		<path
   style="fill:#efefef"
   d="m 35.768,70.656 c 0,2.698 0,4.254 -0.038,5.507 -0.151,4.861 -3.266,8.013 -8.544,8.013 -4.177,0 -7.404,-1.71 -7.974,-6.19 l -0.076,-0.494 h 1.482 l 0.037,0.494 c 0.456,3.494 3.266,4.937 6.608,4.937 4.519,0 6.911,-2.772 7.026,-6.873 0.038,-1.253 0.038,-2.165 0.038,-3.723 v -0.683 l -1.177,2.278 c -1.633,1.823 -3.494,2.507 -6.038,2.507 -5.393,0 -8.773,-4.328 -8.773,-10.366 0,-7.141 4.367,-10.709 9.266,-10.709 2.317,0 4.101,0.683 5.583,2.278 l 1.139,2.317 v -4.178 h 1.443 v 14.885 z m -1.442,-4.025 v -1.937 c 0,-6.19 -3.646,-8.127 -6.722,-8.127 -4.481,0 -7.671,3.684 -7.671,9.304 0,5.052 2.545,9.343 7.329,9.343 3.798,0.001 7.064,-2.201 7.064,-8.583 z"
   id="path4605"
   inkscape:connector-curvature="0" />
		<path
   style="fill:#efefef"
   d="m 48.872,55.467 v 1.177 c -3.608,-0.265 -6.151,2.089 -6.151,8.166 V 75.898 H 41.277 V 55.885 h 1.444 v 4.064 l 1.063,-2.43 c 0.988,-1.368 2.43,-2.165 4.063,-2.165 0.38,0 0.721,0.037 1.025,0.113 z"
   id="path4607"
   inkscape:connector-curvature="0" />
		<path
   style="fill:#efefef"
   d="M 63.95,71.531 63,73.544 c -1.366,1.937 -3.569,2.885 -6.076,2.885 -3.759,0 -6.265,-1.86 -6.265,-5.468 0,-4.632 5.317,-6.721 11.962,-6.721 h 1.291 v -0.912 c 0,-0.912 0,-1.708 -0.076,-2.544 -0.227,-2.698 -1.975,-4.217 -5.126,-4.217 -2.772,0 -5.355,1.482 -5.772,4.976 h -1.481 c 0.265,-3.57 3.19,-6.19 7.253,-6.19 4.139,0 6.266,1.936 6.57,5.279 0.076,0.988 0.076,1.632 0.076,2.62 v 6.532 c 0,2.089 0.113,3.57 0.342,6.114 h -1.482 z m -0.038,-3.494 v -2.583 c -5.772,-0.379 -11.658,1.14 -11.658,5.431 0,2.696 1.671,4.33 5.013,4.33 3.987,0 6.645,-3.305 6.645,-7.178 z"
   id="path4609"
   inkscape:connector-curvature="0" />
		<path
   style="fill:#efefef"
   d="m 76.901,74.91 v 1.14 c -0.607,0.076 -1.405,0.113 -2.127,0.113 -1.975,0 -2.999,-0.873 -3.152,-2.809 -0.076,-0.836 -0.076,-1.519 -0.076,-2.659 V 57.177 h -2.467 v -1.14 h 2.467 v -4.254 h 1.444 v 4.254 h 3.873 v 1.14 H 72.99 v 13.595 c 0,0.988 0,1.48 0.038,2.013 0.152,1.973 1.025,2.543 3.873,2.125 z"
   id="path4611"
   inkscape:connector-curvature="0" />
		<path
   style="fill:#efefef"
   d="m 82.333,51.707 c 0,0.609 -0.494,1.101 -1.101,1.101 -0.609,0 -1.101,-0.492 -1.101,-1.101 0,-0.607 0.492,-1.101 1.101,-1.101 0.607,0 1.101,0.494 1.101,1.101 z M 80.51,75.898 V 55.885 h 1.443 v 20.013 z"
   id="path4613"
   inkscape:connector-curvature="0" />
		<path
   style="fill:#efefef"
   d="m 104.929,65.911 c 0,6.151 -3.608,10.518 -9.532,10.518 -5.923,0 -9.53,-4.367 -9.53,-10.518 0,-6.19 3.608,-10.557 9.53,-10.557 5.924,0 9.532,4.367 9.532,10.557 z m -1.558,0 c 0,-6.227 -3.721,-9.343 -7.974,-9.343 -4.252,0 -7.935,3.116 -7.935,9.343 0,6.19 3.684,9.304 7.935,9.304 4.253,0 7.974,-3.114 7.974,-9.304 z"
   id="path4615"
   inkscape:connector-curvature="0" />
		<path
   style="fill:#efefef"
   d="m 124.261,64.734 v 11.164 h -1.443 V 65.075 c 0,-1.329 -0.039,-2.202 -0.152,-3.229 -0.342,-3.114 -2.05,-5.239 -5.657,-5.239 -3.533,0 -6.76,2.467 -6.76,8.203 v 11.088 h -1.443 V 55.885 h 1.443 v 4.291 l 0.912,-2.089 c 1.519,-1.897 3.645,-2.733 5.999,-2.733 4.14,0 6.571,2.278 6.95,6.075 0.114,1.027 0.151,1.671 0.151,3.305 z"
   id="path4617"
   inkscape:connector-curvature="0" />
		<path
   style="fill:#efefef"
   d="m 138.618,53.152 v 2.885 h 4.101 v 1.216 h -4.101 v 18.645 h -1.443 V 57.253 h -2.165 v -1.216 h 2.165 v -2.811 c 0,-0.607 0,-1.366 0.076,-2.126 0.265,-2.62 2.013,-3.836 3.949,-3.836 0.759,0 1.214,0.039 1.897,0.191 v 1.253 c -2.848,-0.646 -4.176,0.568 -4.404,2.505 -0.075,0.762 -0.075,1.369 -0.075,1.939 z"
   id="path4619"
   inkscape:connector-curvature="0" />
		<path
   style="fill:#efefef"
   d="m 163.607,65.911 c 0,6.151 -3.608,10.518 -9.532,10.518 -5.923,0 -9.53,-4.367 -9.53,-10.518 0,-6.19 3.608,-10.557 9.53,-10.557 5.925,0 9.532,4.367 9.532,10.557 z m -1.557,0 c 0,-6.227 -3.721,-9.343 -7.974,-9.343 -4.252,0 -7.935,3.116 -7.935,9.343 0,6.19 3.684,9.304 7.935,9.304 4.253,0 7.974,-3.114 7.974,-9.304 z"
   id="path4621"
   inkscape:connector-curvature="0" />
		<path
   style="fill:#efefef"
   d="m 175.078,55.467 v 1.177 c -3.608,-0.265 -6.151,2.089 -6.151,8.166 v 11.088 h -1.443 V 55.885 h 1.443 v 4.064 l 1.064,-2.43 c 0.986,-1.368 2.43,-2.165 4.062,-2.165 0.381,0 0.723,0.037 1.025,0.113 z"
   id="path4623"
   inkscape:connector-curvature="0" />
		<path
   style="fill:#efefef"
   d="m 200.676,64.734 v 11.164 h -1.443 V 65.075 c 0,-1.329 -0.039,-2.202 -0.152,-3.229 -0.342,-3.114 -2.05,-5.279 -5.659,-5.239 -3.531,0 -6.758,2.467 -6.758,8.203 v 11.088 h -1.443 V 47.797 h 1.443 v 12.378 l 0.912,-2.089 c 1.519,-1.897 3.645,-2.733 5.999,-2.733 4.14,0 6.571,2.278 6.95,6.075 0.114,1.028 0.151,1.672 0.151,3.306 z"
   id="path4625"
   inkscape:connector-curvature="0" />
		<path
   style="fill:#efefef"
   d="M 221.829,66.289 H 205.88 c 0.226,6.495 3.797,8.925 7.291,8.925 3.037,0 5.923,-1.747 6.91,-5.544 h 1.482 c -1.101,4.519 -4.595,6.758 -8.468,6.758 -4.785,0 -8.734,-3.568 -8.734,-10.594 0,-6.342 3.986,-10.481 9.075,-10.481 5.657,0 8.429,4.785 8.429,9.987 0.001,0.19 0.001,0.456 -0.036,0.949 z m -15.948,-1.253 h 14.506 c -0.228,-6.188 -3.647,-8.468 -7.026,-8.468 -3.494,0 -7.254,2.735 -7.48,8.468 z"
   id="path4627"
   inkscape:connector-curvature="0" />
		<path
   style="fill:#efefef"
   d="m 238.239,71.531 -0.951,2.013 c -1.366,1.937 -3.568,2.885 -6.075,2.885 -3.76,0 -6.266,-1.86 -6.266,-5.468 0,-4.632 5.316,-6.721 11.963,-6.721 h 1.29 v -0.912 c 0,-0.912 0,-1.708 -0.076,-2.544 -0.228,-2.698 -1.974,-4.217 -5.126,-4.217 -2.772,0 -5.355,1.482 -5.772,4.976 h -1.482 c 0.267,-3.57 3.192,-6.19 7.254,-6.19 4.138,0 6.266,1.936 6.569,5.279 0.076,0.988 0.076,1.632 0.076,2.62 v 6.532 c 0,2.089 0.115,3.57 0.342,6.114 h -1.48 z M 238.2,68.037 v -2.583 c -5.772,-0.379 -11.658,1.14 -11.658,5.431 0,2.696 1.671,4.33 5.013,4.33 3.986,0 6.645,-3.305 6.645,-7.178 z"
   id="path4629"
   inkscape:connector-curvature="0" />
		<path
   style="fill:#efefef"
   d="m 246.442,71.037 c 0,1.14 0,1.86 0.039,2.43 0.076,1.253 0.57,1.558 2.202,1.366 v 1.14 c -0.455,0.113 -0.949,0.113 -1.406,0.113 -1.253,0 -2.163,-0.494 -2.239,-2.239 -0.039,-0.761 -0.039,-1.445 -0.039,-2.774 V 47.986 h 1.443 z"
   id="path4631"
   inkscape:connector-curvature="0" />
		<path
   style="fill:#efefef"
   d="m 258.482,74.91 v 1.14 c -0.607,0.076 -1.406,0.113 -2.126,0.113 -1.976,0 -3,-0.873 -3.153,-2.809 -0.076,-0.836 -0.076,-1.519 -0.076,-2.659 V 57.177 h -2.467 v -1.14 h 2.467 v -4.254 h 1.443 v 4.254 h 3.875 v 1.14 h -3.875 v 13.595 c 0,0.988 0,1.48 0.039,2.013 0.153,1.973 1.025,2.543 3.873,2.125 z"
   id="path4633"
   inkscape:connector-curvature="0" />
		<path
   style="fill:#efefef"
   d="m 277.547,64.734 v 11.164 h -1.443 V 65.075 c 0,-1.329 -0.039,-2.202 -0.152,-3.229 -0.342,-3.114 -2.05,-5.279 -5.659,-5.239 -3.531,0 -6.758,2.467 -6.758,8.203 v 11.088 h -1.443 V 47.797 h 1.443 v 12.378 l 0.912,-2.089 c 1.519,-1.897 3.645,-2.733 5.999,-2.733 4.14,0 6.571,2.278 6.95,6.075 0.114,1.028 0.151,1.672 0.151,3.306 z"
   id="path4635"
   inkscape:connector-curvature="0" />
	</g>
</g>
</svg>